<svg width="142" height="35" viewBox="0 0 142 35" fill="none" xmlns="http://www.w3.org/2000/svg">
<path d="M4.44654 0.461728C5.25834 1.01523 6.41761 2.14375 6.41761 4.06869V10.6522C7.63838 10.0834 8.89913 9.75127 10.1629 9.55447V2.52812C10.1629 2.3344 10.3198 2.17757 10.5135 2.17757H13.6285C14.2189 2.20832 14.8154 2.25752 15.3904 2.34055C18.3393 2.78335 20.8516 3.86267 22.8811 5.56006L22.8934 5.55084C24.5139 6.93151 26.1929 9.07785 27.1215 12.2143C27.8042 12.4542 28.4714 12.6787 29.0526 12.8755L29.5631 13.0477C30.1934 13.2598 30.8269 13.4197 31.4665 13.5243C30.9499 10.3417 29.5016 6.64553 25.6332 3.59514L25.6424 3.58899C25.338 3.34914 25.0274 3.12467 24.7107 2.90942C24.6769 2.88482 24.6431 2.86022 24.6062 2.83562C24.6031 2.83562 24.6 2.83254 24.5969 2.82947C22.0539 1.13822 19.0558 0.212653 15.6487 0.0712033C13.2902 -0.0271963 10.8948 -0.00259756 8.57318 0.0220024C8.34871 0.0250773 8.12116 0.0250787 7.89668 0.0281536H4.58184C4.34815 0.0312286 4.25282 0.329504 4.44654 0.461728Z" fill="#C9151B"/>
<path d="M38.8403 13.6966C38.6558 13.7704 38.4559 13.8473 38.2591 13.918C38.2591 13.918 38.2591 13.918 38.256 13.9211C38.2345 13.9272 38.216 13.9334 38.1945 13.9426C35.181 15.0865 32.1522 15.1572 29.1909 14.1578L28.6805 13.9856C27.5581 13.6074 26.3989 13.2169 25.2796 12.7864C20.8177 11.0644 17.057 10.3203 13.4378 10.4402C10.4581 10.5417 7.33392 10.9353 4.64638 13.1216C1.54987 15.6431 -0.0122279 18.7396 7.20724e-05 22.3312C0.012372 27.1374 2.30939 30.8397 6.6482 33.0444C9.21274 34.3482 11.8203 35.0001 14.4525 35.0001C17.0263 35.0001 19.6277 34.3759 22.2292 33.1274C28.047 30.3384 31.2327 25.6152 31.6971 19.0932C31.7001 19.0655 31.7032 19.0409 31.7032 19.0133C31.7094 18.9487 31.7155 18.8872 31.7186 18.8318C31.7186 18.798 31.7217 18.7611 31.7247 18.7273C31.7247 18.6996 31.7278 18.675 31.7278 18.6473C31.7309 18.6197 31.7309 18.5951 31.7309 18.5674C31.734 18.4536 31.734 18.3737 31.7309 18.3306C31.7278 18.2999 31.7278 18.2845 31.7278 18.2845C31.7278 18.2845 31.8508 18.2476 32.0445 18.1984C32.0845 18.1861 32.1337 18.1769 32.1798 18.1676L32.269 18.1461C33.1515 17.937 34.0648 17.7248 34.9135 17.3774C36.1742 16.8608 37.2659 16.132 38.216 15.1572C38.4959 14.8712 38.7665 14.5637 39.0248 14.2316L39.1201 14.1086C39.1324 14.0902 39.1447 14.0779 39.1539 14.0625C39.1847 14.0195 39.197 13.9856 39.2031 13.9549C39.2123 13.7765 39.034 13.6197 38.8403 13.6966ZM20.5072 31.7683C18.0841 33.0783 16.5251 33.4165 12.9089 33.4165C8.86834 33.3427 5.14145 31.0026 2.93976 27.1558C1.04864 23.8502 1.04864 20.4339 2.93976 17.2697C4.36963 14.8866 6.62052 13.6289 9.63401 13.5367C9.81236 13.5305 9.99071 13.5275 10.166 13.5275C13.5854 13.5275 16.808 14.5422 19.8214 15.5939C21.362 16.1289 22.9395 16.6271 24.4678 17.1098C25.4241 17.4112 26.4081 17.7187 27.3767 18.0385C27.4259 18.0569 27.4751 18.0723 27.5274 18.0877C27.6196 18.1184 27.7119 18.1492 27.8041 18.1799V18.7949C27.8072 18.8595 27.8072 18.9271 27.8072 18.9917C27.8041 24.6097 25.1689 29.2437 20.5072 31.7683Z" fill="#C9151B"/>
<path d="M9.67094 14.7082C8.41635 14.7451 7.33702 15.0003 6.4176 15.4831V29.625C7.53075 30.6151 8.80379 31.347 10.1629 31.7836V31.2947V14.699C9.99996 14.699 9.83392 14.702 9.67094 14.7082Z" fill="#C9151B"/>
<path d="M50.7805 23.1552C50.1624 22.2881 49.3137 21.8545 48.2405 21.8545C47.0843 21.8545 46.1957 22.2666 45.5776 23.0937C44.9595 23.9209 44.649 25.0556 44.649 26.5008V34.9878H40.4362V15.7814C40.4362 14.6191 41.3802 13.675 42.5426 13.675C43.1207 13.675 43.6158 13.8811 44.0278 14.2931C44.4399 14.7052 44.6459 15.2033 44.6459 15.7814V20.6768C45.39 19.4376 46.4417 18.6535 47.8039 18.3214C49.1661 17.9923 50.4668 18.0723 51.7061 18.5704C52.8622 19.0655 53.8339 19.8496 54.6181 20.9259C55.4022 21.999 55.7958 23.4873 55.7958 25.3877V34.9909H51.6446V26.4424C51.6446 25.8243 51.5923 25.2555 51.4908 24.7389C51.3893 24.2192 51.1526 23.6903 50.7805 23.1552Z" fill="#C9151B"/>
<path d="M67.9327 33.9946C67.0656 34.4497 66.1462 34.7264 65.1745 34.831C64.2028 34.9324 63.3479 34.9847 62.6038 34.9847C61.1155 34.9847 59.8147 34.5819 58.7016 33.7762C57.5885 32.9706 57.0288 31.6391 57.0288 29.7818C57.0288 28.0475 57.5331 26.8083 58.5479 26.0642C59.5595 25.32 60.851 24.8249 62.4193 24.5789C62.6253 24.5789 62.8744 24.5482 63.1634 24.4867C63.4525 24.4252 63.7815 24.3729 64.1536 24.3329C65.9709 24.0839 66.878 23.5488 66.878 22.7217C66.878 22.1036 66.5582 21.7008 65.9186 21.5132C65.279 21.3287 64.6886 21.2334 64.1536 21.2334C63.5755 21.2334 63.0589 21.3164 62.6038 21.4824C62.1487 21.6485 61.8196 21.9591 61.6136 22.4111H57.4624C57.6284 21.1319 58.2065 20.0772 59.1967 19.2531C60.3129 18.3029 61.9027 17.8293 63.966 17.8293C66.2784 17.8293 68.0127 18.2229 69.1689 19.0071C70.365 19.8342 70.9647 20.9904 70.9647 22.4757V28.1121C70.9647 29.7634 70.6664 31.0549 70.0668 31.9835C69.4702 32.9122 68.7568 33.5825 67.9327 33.9946ZM66.9395 26.3747C66.3614 26.6638 65.5558 26.9313 64.5226 27.1804L63.0988 27.491C62.3547 27.697 61.8196 27.9676 61.4875 28.2966C61.1985 28.7517 61.054 29.2068 61.054 29.6588C61.054 30.2769 61.2385 30.775 61.6105 31.144C61.9826 31.4761 62.5177 31.6391 63.2218 31.6391C64.378 31.6391 65.2852 31.3101 65.9463 30.649C66.6074 29.9879 66.9364 29.0807 66.9364 27.9245V26.3747H66.9395Z" fill="#C9151B"/>
<path d="M94.3776 19.5452C92.8494 18.595 91.1797 18.1215 89.3593 18.1215C88.4521 18.1615 87.5727 18.2968 86.7271 18.5212C85.8815 18.7519 85.1496 19.1301 84.5285 19.6651C83.7843 19.0501 82.9602 18.635 82.05 18.429C81.1429 18.2199 80.2112 18.1184 79.261 18.1184C77.4867 18.2014 75.8662 18.715 74.3994 19.6651C72.9296 20.6153 72.1978 22.4972 72.1978 25.3016V30.5906V34.9693H74.4333C75.0513 34.9693 75.5587 34.7726 75.9523 34.382C76.3428 33.9915 76.5396 33.4811 76.5396 32.863V30.5875V24.4344C76.5396 23.4412 76.8256 22.7217 77.4068 22.2635C77.9849 21.8115 78.6491 21.5808 79.3871 21.5808C80.1343 21.5808 80.8046 21.8115 81.4043 22.2635C82.0008 22.7217 82.2991 23.4412 82.2991 24.4344V34.9632H86.5733V24.4344C86.5733 23.4412 86.8747 22.7217 87.4712 22.2635C88.0678 21.8115 88.7412 21.5808 89.4853 21.5808C90.2295 21.5808 90.8998 21.8115 91.4964 22.2635C92.0929 22.7217 92.3974 23.4412 92.3974 24.4344V32.863C92.3974 33.478 92.5942 33.9884 92.9816 34.379C93.3752 34.7695 93.8826 34.9632 94.4976 34.9632H96.6685V25.2985C96.6685 22.4172 95.9028 20.4954 94.3776 19.5452Z" fill="#C9151B"/>
<path d="M108.799 33.9946C107.932 34.4497 107.013 34.7264 106.041 34.831C105.069 34.9324 104.214 34.9847 103.47 34.9847C101.985 34.9847 100.681 34.5819 99.5682 33.7762C98.452 32.9706 97.8954 31.6391 97.8954 29.7818C97.8954 28.0475 98.3997 26.8083 99.4144 26.0642C100.426 25.32 101.718 24.8249 103.286 24.5789C103.492 24.5789 103.741 24.5482 104.03 24.4867C104.319 24.4252 104.648 24.3729 105.02 24.3329C106.837 24.0839 107.745 23.5488 107.745 22.7217C107.745 22.1036 107.425 21.7008 106.785 21.5132C106.146 21.3287 105.555 21.2334 105.02 21.2334C104.442 21.2334 103.925 21.3164 103.47 21.4824C103.015 21.6485 102.686 21.9591 102.48 22.4111H98.329C98.495 21.1319 99.0731 20.0772 100.063 19.2531C101.179 18.3029 102.766 17.8293 104.833 17.8293C107.145 17.8293 108.879 18.2229 110.035 19.0071C111.232 19.8342 111.831 20.9904 111.831 22.4757V28.1121C111.831 29.7634 111.53 31.0549 110.933 31.9835C110.337 32.9122 109.626 33.5825 108.799 33.9946ZM107.809 26.3747C107.231 26.6638 106.425 26.9313 105.392 27.1804L103.968 27.491C103.224 27.697 102.689 27.9676 102.357 28.2966C102.068 28.7517 101.924 29.2068 101.924 29.6588C101.924 30.2769 102.108 30.775 102.48 31.144C102.852 31.4761 103.387 31.6391 104.091 31.6391C105.248 31.6391 106.155 31.3101 106.816 30.649C107.477 29.9879 107.806 29.0807 107.806 27.9245V26.3747H107.809Z" fill="#C9151B"/>
<path d="M117.4 18.509V24.5791L122.664 18.509H127.867L121.985 24.8281L127.932 34.9879H122.729L119.694 29.4129C119.076 28.2967 118.538 27.8232 118.083 27.9892C117.628 28.1553 117.4 28.4013 117.4 28.7334V31.0242V34.9879H113.064V15.9076C113.064 14.6745 114.064 13.6782 115.294 13.6782C115.872 13.6782 116.367 13.8842 116.779 14.2963C117.191 14.7083 117.397 15.185 117.397 15.72V18.509H117.4Z" fill="#C9151B"/>
<path d="M138.236 33.9946C137.369 34.4497 136.45 34.7264 135.478 34.831C134.506 34.9324 133.651 34.9847 132.907 34.9847C131.422 34.9847 130.118 34.5819 129.005 33.7762C127.889 32.9706 127.332 31.6391 127.332 29.7818C127.332 28.0475 127.837 26.8083 128.851 26.0642C129.863 25.32 131.155 24.8249 132.723 24.5789C132.929 24.5789 133.178 24.5482 133.467 24.4867C133.756 24.4252 134.085 24.3729 134.457 24.3329C136.274 24.0839 137.182 23.5488 137.182 22.7217C137.182 22.1036 136.862 21.7008 136.222 21.5132C135.583 21.3287 134.992 21.2334 134.457 21.2334C133.879 21.2334 133.362 21.3164 132.907 21.4824C132.452 21.6485 132.123 21.9591 131.917 22.4111H127.766C127.932 21.1319 128.51 20.0772 129.5 19.2531C130.616 18.3029 132.203 17.8293 134.27 17.8293C136.582 17.8293 138.316 18.2229 139.472 19.0071C140.669 19.8342 141.268 20.9904 141.268 22.4757V28.1121C141.268 29.7634 140.967 31.0549 140.37 31.9835C139.774 32.9122 139.06 33.5825 138.236 33.9946ZM137.246 26.3747C136.668 26.6638 135.862 26.9313 134.829 27.1804L133.405 27.491C132.661 27.697 132.126 27.9676 131.794 28.2966C131.505 28.7517 131.361 29.2068 131.361 29.6588C131.361 30.2769 131.545 30.775 131.917 31.144C132.289 31.4761 132.824 31.6391 133.528 31.6391C134.685 31.6391 135.592 31.3101 136.253 30.649C136.914 29.9879 137.243 29.0807 137.243 27.9245V26.3747H137.246Z" fill="#C9151B"/>
</svg>
