<?xml version="1.0" encoding="utf-8"?>
<!-- Generator: Adobe Illustrator 25.2.0, SVG Export Plug-In . SVG Version: 6.00 Build 0)  -->
<svg version="1.1" id="Layer_1" xmlns="http://www.w3.org/2000/svg" xmlns:xlink="http://www.w3.org/1999/xlink" x="0px" y="0px"
	 viewBox="0 0 643.48 200" style="enable-background:new 0 0 643.48 200;" xml:space="preserve">
<style type="text/css">
	.st0{fill:#E1191D;}
	.st1{fill:#00969E;}
	.st2{fill:#00979F;}
	.st3{fill:#00999F;}
	.st4{fill:#009BA0;}
	.st5{fill:#007F96;}
</style>
<g>
	<g>
		<g>
			<g>
				<path class="st0" d="M560.68,69.16c-0.64-0.07-1.24-0.38-1.68-0.92c-0.86-1.08-0.69-2.65,0.39-3.51l10.72-8.58
					c1.08-0.86,2.65-0.69,3.51,0.39s0.69,2.65-0.39,3.51l-10.72,8.58C561.98,69.05,561.32,69.23,560.68,69.16z"/>
			</g>
		</g>
		<g>
			<g>
				<path class="st0" d="M569.13,48.65l-13.64-1.51c-1.37-0.15-2.36-1.39-2.21-2.76s1.39-2.36,2.76-2.21l13.64,1.51
					c1.37,0.15,2.36,1.39,2.21,2.76S570.5,48.8,569.13,48.65z"/>
			</g>
		</g>
		<g>
			<g>
				<path class="st0" d="M575.97,38.6c-0.64-0.07-1.24-0.38-1.68-0.92l-8.58-10.72c-0.86-1.08-0.69-2.65,0.39-3.51
					s2.65-0.69,3.51,0.39l8.58,10.72c0.86,1.08,0.69,2.65-0.39,3.51C577.27,38.5,576.6,38.67,575.97,38.6z"/>
			</g>
		</g>
		<g>
			<g>
				<path class="st0" d="M587.91,36.34c-1.37-0.15-2.36-1.39-2.21-2.76l1.51-13.64c0.15-1.37,1.39-2.36,2.76-2.21
					c1.37,0.15,2.36,1.39,2.21,2.76l-1.51,13.64C590.51,35.5,589.28,36.49,587.91,36.34z"/>
			</g>
		</g>
		<g>
			<g>
				<path class="st0" d="M597.95,43.17c-0.64-0.07-1.24-0.38-1.68-0.92c-0.86-1.08-0.69-2.65,0.39-3.51l10.72-8.58
					c1.08-0.86,2.65-0.69,3.51,0.39s0.69,2.65-0.39,3.51l-10.72,8.58C599.25,43.07,598.58,43.24,597.95,43.17z"/>
			</g>
		</g>
	</g>
	<g>
		<g>
			<polygon class="st0" points="581.65,93.23 581.83,91.61 586.37,50.67 612.75,83.63 595.69,84.35 			"/>
		</g>
		<g>
			<path class="st0" d="M581.65,94.71c-0.27,0-0.54-0.08-0.78-0.23c-0.48-0.3-0.75-0.85-0.69-1.42l4.73-42.56
				c0.07-0.6,0.48-1.09,1.06-1.26c0.57-0.16,1.2,0.03,1.57,0.5L613.9,82.7c0.35,0.44,0.42,1.03,0.19,1.54
				c-0.23,0.51-0.73,0.84-1.28,0.86l-16.66,0.7l-13.71,8.68C582.2,94.64,581.92,94.71,581.65,94.71z M587.45,54.39l-3.99,35.95
				l11.44-7.24c0.22-0.14,0.47-0.22,0.73-0.23l14.13-0.6L587.45,54.39z"/>
		</g>
	</g>
</g>
<g>
	<path class="st0" d="M601.51,78.54"/>
</g>
<path class="st1" d="M84.81,69.38L84.81,69.38l-2.17,0l0.01,0.02C83.35,69.39,84.07,69.38,84.81,69.38z"/>
<path class="st2" d="M86.83,69.37h-2.02l0,0C85.46,69.38,86.13,69.37,86.83,69.37z"/>
<path class="st2" d="M86.98,69.37h-0.15C86.88,69.37,86.93,69.37,86.98,69.37L86.98,69.37z"/>
<path class="st3" d="M89.15,69.38L89.15,69.38l-2.17,0v0C87.73,69.37,88.45,69.37,89.15,69.38z"/>
<path class="st4" d="M91.32,69.39l-0.01-0.02h-2.17l0,0C89.9,69.38,90.62,69.38,91.32,69.39z"/>
<g>
	<path class="st5" d="M118.39,88.87c0.44-0.28,0.83-0.55,1.18-0.81c0.45-0.34,0.82-0.66,1.12-0.96c0.08-0.08,0.17-0.17,0.24-0.25
		c0.28-0.33,0.51-0.71,0.71-1.12c0.31-0.63,0.53-1.34,0.64-2.16l0.09,0.22v-1.57c0-2.93-1.17-5.26-3.46-7.01
		c-0.15-0.12-0.29-0.24-0.45-0.35c-0.46-0.31-0.99-0.61-1.55-0.9c-0.56-0.29-1.17-0.57-1.84-0.83c-0.55-0.22-1.14-0.43-1.76-0.64
		c-0.54-0.18-1.11-0.35-1.71-0.51c-0.54-0.15-1.1-0.29-1.68-0.43c-0.53-0.13-1.09-0.25-1.65-0.36c-0.53-0.11-1.07-0.22-1.63-0.32
		c-0.38-0.07-0.76-0.14-1.16-0.21c-0.16-0.03-0.31-0.05-0.47-0.08c-0.55-0.09-1.09-0.18-1.61-0.26c-0.55-0.08-1.08-0.16-1.6-0.23
		c-0.54-0.07-1.07-0.14-1.58-0.2c-0.77-0.09-1.52-0.16-2.26-0.22c-0.75-0.06-1.49-0.11-2.23-0.15c-0.73-0.04-1.46-0.07-2.2-0.09
		c-0.71-0.02-1.44-0.03-2.19-0.04c-0.7-0.01-1.42-0.01-2.17-0.02c-0.69,0-1.41,0-2.17,0c-0.05,0-0.1,0-0.15,0c-0.7,0-1.37,0-2.02,0
		c-0.74,0-1.46,0.01-2.16,0.02c-0.73,0.01-1.45,0.02-2.15,0.04c-0.72,0.02-1.43,0.05-2.13,0.08c-0.71,0.04-1.41,0.08-2.11,0.14
		c-0.69,0.06-1.39,0.12-2.09,0.2c-0.68,0.08-1.36,0.16-2.06,0.27c-0.66,0.1-1.34,0.2-2.04,0.33c-0.65,0.12-1.32,0.24-2.01,0.38
		c-0.03,0.01-0.05,0.01-0.07,0.01c-0.66,0.14-1.29,0.28-1.91,0.43c-0.68,0.16-1.33,0.33-1.97,0.5c-0.67,0.18-1.32,0.37-1.94,0.57
		c-0.66,0.21-1.3,0.43-1.91,0.65c-0.66,0.25-1.28,0.5-1.86,0.76c-0.65,0.29-1.24,0.6-1.8,0.91c-0.63,0.36-1.21,0.72-1.72,1.1
		c-0.04,0.03-0.08,0.06-0.12,0.08c-0.55,0.42-1.03,0.88-1.47,1.35c-0.55,0.6-1.01,1.24-1.39,1.93c-0.48,0.89-0.82,1.85-1.01,2.88
		c-0.12,0.67-0.2,1.37-0.2,2.1c0,1.66,0.54,3.22,1.62,4.68c0.62,0.84,1.32,1.47,2.09,1.93c0.57,0.34,1.17,0.61,1.83,0.74
		c0.25,0.06,0.48,0.12,0.72,0.19c0.92,0.24,1.74,0.46,2.43,0.66c1.15,0.33,1.98,0.6,2.5,0.82c0.12,0.05,0.23,0.1,0.32,0.15
		c0.73,0.38,1.58,1.21,2.53,2.48c1.15,1.59,1.86,3.65,2.15,6.16c0.12,1.04,0.22,2.3,0.33,4.41c0.08,1.51,0.17,3.45,0.28,6.07
		c0.07,1.69,0.15,3.67,0.25,5.99c0.05,1.23,0.1,2.56,0.16,4l-0.01,1.76l-0.02,5.32l-0.02,5.32l-0.02,5.32l-0.01,3.07l-0.04,2.16
		l-0.1,5.12l-0.03,1.41c0,1.13-0.09,2.22-0.25,3.28c-0.18,1.19-0.45,2.33-0.79,3.42c-0.3,0.97-0.65,1.89-1.05,2.78
		c-0.37,0.84-0.77,1.64-1.2,2.41c-0.42,0.76-0.85,1.48-1.3,2.16c-0.23,0.36-0.46,0.71-0.69,1.05c-0.22,0.32-0.45,0.61-0.69,0.9
		c-0.48,0.61-0.97,1.17-1.5,1.66c-0.52,0.49-1.08,0.9-1.65,1.28c-0.57,0.37-1.16,0.7-1.78,0.96c-0.62,0.26-1.26,0.47-1.92,0.61
		c-0.66,0.15-1.35,0.23-2.06,0.27c-0.24,0.01-0.47,0.04-0.72,0.04c-0.51,0-1-0.03-1.47-0.09c-0.88-0.11-1.69-0.31-2.42-0.62
		c-0.72-0.3-1.37-0.7-1.94-1.2c-0.59-0.51-1.06-1.09-1.41-1.73l-0.54-1.33c-0.16-0.59-0.25-1.23-0.25-1.91
		c0-0.76,0.06-1.46,0.19-2.1c0.08-0.33,0.15-0.64,0.23-0.95c0.33-1.4,0.57-2.6,0.72-3.6c0.13-0.86,0.2-1.58,0.2-2.14
		c0-1.27-0.13-2.48-0.37-3.65c-0.39-1.89-1.1-3.64-2.13-5.28c-0.96-1.53-2.19-2.95-3.71-4.26c-0.08-0.07-0.17-0.13-0.26-0.2
		c-0.96-0.79-1.96-1.5-3.02-2.1c-0.86-0.49-1.76-0.9-2.68-1.27c-0.81-0.33-1.65-0.61-2.51-0.84c-0.77-0.21-1.56-0.39-2.38-0.52
		c-0.74-0.12-1.5-0.2-2.27-0.25c-0.65-0.05-1.31-0.07-1.99-0.07c-0.07,0-0.14,0.01-0.21,0.01c-0.72,0.01-1.43,0.04-2.13,0.1
		c-0.7,0.07-1.38,0.16-2.05,0.29c-0.67,0.13-1.33,0.29-1.98,0.48c-0.65,0.19-1.28,0.42-1.9,0.67c-0.62,0.26-1.23,0.54-1.82,0.86
		c-0.6,0.32-1.18,0.68-1.74,1.06c-0.57,0.39-1.12,0.81-1.66,1.27c-0.54,0.46-1.07,0.95-1.57,1.47c-0.01,0.01-0.03,0.03-0.04,0.04
		c-0.51,0.53-0.99,1.09-1.44,1.66c-0.5,0.64-0.95,1.3-1.37,1.98c-0.46,0.75-0.86,1.54-1.22,2.34c-0.4,0.9-0.76,1.83-1.04,2.8
		c-0.33,1.15-0.56,2.35-0.72,3.59c-0.14,1.11-0.23,2.24-0.23,3.43c0,5.16,1.27,10.01,3.82,14.57c1.89,3.37,4.27,6.23,7.13,8.57
		c0.96,0.79,1.98,1.51,3.05,2.18c0.05,0.03,0.09,0.06,0.14,0.09c0.87,0.54,1.77,1.05,2.7,1.56c0.89,0.48,1.8,0.95,2.73,1.39
		c0.86,0.41,1.75,0.81,2.65,1.2c0.84,0.36,1.7,0.7,2.58,1.03c0.83,0.31,1.67,0.61,2.53,0.9c0.81,0.27,1.64,0.53,2.48,0.78
		c0.8,0.24,1.62,0.46,2.44,0.68c0.12,0.03,0.24,0.07,0.36,0.1c0.68,0.18,1.36,0.34,2.05,0.5c0.79,0.19,1.59,0.36,2.38,0.52
		c0.78,0.16,1.57,0.31,2.35,0.45c0.77,0.14,1.55,0.26,2.32,0.38c0.76,0.11,1.53,0.22,2.29,0.31c0.76,0.09,1.51,0.18,2.27,0.25
		c0.75,0.07,1.49,0.13,2.24,0.18c0.74,0.05,1.48,0.08,2.21,0.11l0.03,0.07h2.17h0.95h1.22h2.17l-0.03-0.08
		c0.71-0.03,1.41-0.07,2.12-0.13c0.7-0.05,1.4-0.12,2.09-0.19c0.69-0.07,1.38-0.15,2.07-0.24c0.69-0.09,1.37-0.18,2.05-0.29
		c0.68-0.11,1.35-0.24,2.02-0.37c0.67-0.13,1.33-0.27,2-0.42c0.66-0.15,1.32-0.3,1.98-0.47c0.65-0.17,1.3-0.35,1.95-0.54
		c0.65-0.19,1.29-0.39,1.93-0.6c0.39-0.13,0.79-0.24,1.18-0.38c0.25-0.09,0.48-0.18,0.73-0.27c0.64-0.23,1.27-0.45,1.89-0.7
		c0.63-0.25,1.24-0.52,1.85-0.78c0.62-0.27,1.23-0.55,1.83-0.84c0.61-0.29,1.22-0.59,1.8-0.9c0.6-0.32,1.2-0.64,1.78-0.97
		c0.59-0.35,1.17-0.7,1.74-1.07c0.58-0.37,1.15-0.76,1.7-1.15c0.57-0.4,1.12-0.82,1.67-1.25c0.56-0.44,1.1-0.89,1.62-1.35
		c0.36-0.31,0.72-0.62,1.07-0.95c0.18-0.17,0.33-0.36,0.51-0.53c0.52-0.52,1.04-1.04,1.52-1.6c0.5-0.58,0.97-1.2,1.43-1.83
		c0.48-0.65,0.92-1.33,1.35-2.02c0.45-0.72,0.87-1.47,1.27-2.23c0.41-0.8,0.81-1.62,1.17-2.47c0.38-0.88,0.74-1.78,1.07-2.72
		c0.34-0.97,0.67-1.96,0.96-2.99c0.31-1.06,0.59-2.15,0.85-3.27c0.17-0.74,0.35-1.46,0.5-2.23c0.09-0.45,0.16-0.91,0.22-1.36
		c0.21-1.51,0.28-3.04,0.32-4.59c0.03-1.28,0.05-2.58,0.11-3.89c0.02-0.34,0.02-0.73,0.02-1.16c-0.01-1.41-0.11-3.31-0.22-5.92
		c-0.07-1.67-0.15-3.63-0.22-5.92c-0.05-1.7-0.09-3.58-0.12-5.67c-0.02-1.68-0.03-3.5-0.03-5.45c0-1.17,0.01-2.37,0.02-3.65
		c0.01-0.56,0.01-1.11,0.01-1.65c0.02-1.92,0.03-3.67,0.03-5.29c0.01-1.99,0.01-3.76,0.01-5.35c0-2.1,0-3.87,0-5.37
		c0-2.27,0.02-3.93,0.07-5.19c0.05-1.13,0.13-1.94,0.27-2.59c0.08-0.4,0.22-0.79,0.38-1.18c0.3-0.73,0.75-1.43,1.32-2.09
		c0.32-0.37,0.67-0.73,1.07-1.09c0.35-0.31,0.73-0.61,1.14-0.9c0.37-0.26,0.77-0.52,1.19-0.78c0.39-0.23,0.8-0.46,1.23-0.69
		c0.01,0,0.01-0.01,0.02-0.01c0.43-0.22,0.84-0.43,1.23-0.63c0.44-0.23,0.84-0.46,1.23-0.68C117.61,89.35,118.02,89.11,118.39,88.87
		z"/>
	<path class="st5" d="M219.51,170.65c-0.26-0.09-0.53-0.17-0.83-0.22c-0.31-0.05-0.59-0.1-0.86-0.15c-0.65-0.12-1.22-0.24-1.69-0.36
		c-0.65-0.17-1.14-0.35-1.45-0.54c-0.15-0.09-0.3-0.21-0.46-0.36c-0.5-0.48-1.01-1.24-1.55-2.31c-0.52-1.08-0.94-2.63-1.26-4.65
		c-0.24-1.49-0.43-3.24-0.57-5.24c-0.09-1.34-0.16-2.78-0.21-4.35c-0.04-1.26-0.06-2.59-0.06-3.99c0-0.32,0-0.64,0-0.97l0.04-2.78
		l0.05-3.71l0.05-3.71l0.05-3.71l0-0.32c0-1.31-0.04-2.56-0.1-3.76c-0.09-1.79-0.24-3.46-0.47-5c-0.41-2.77-1.02-5.15-1.86-7.14
		c-0.76-1.79-1.79-3.49-3.08-5.1c-0.81-1.01-1.71-1.98-2.72-2.91c-0.72-0.66-1.5-1.3-2.33-1.93c-0.14-0.11-0.28-0.22-0.42-0.33
		c-0.57-0.41-1.15-0.81-1.74-1.19c-0.67-0.44-1.36-0.85-2.05-1.25c-0.65-0.37-1.31-0.73-1.98-1.07c-0.63-0.32-1.27-0.62-1.91-0.91
		c-0.61-0.27-1.23-0.52-1.86-0.76c-0.6-0.23-1.2-0.45-1.81-0.65c-0.58-0.2-1.17-0.38-1.77-0.55c-0.57-0.17-1.15-0.32-1.74-0.47
		c-0.56-0.14-1.13-0.27-1.71-0.39c-0.55-0.12-1.11-0.23-1.68-0.33c-0.54-0.1-1.1-0.18-1.65-0.26c-0.54-0.08-1.08-0.14-1.63-0.2
		c-0.53-0.06-1.07-0.11-1.61-0.16c-0.53-0.04-1.06-0.08-1.59-0.11c-0.52-0.03-1.05-0.06-1.58-0.07c-0.51-0.02-1.03-0.02-1.56-0.02
		l0-0.01h-0.32c-0.41,0-0.81,0.01-1.22,0.02c-0.51,0.01-1.02,0.02-1.53,0.04c-0.51,0.02-1.01,0.04-1.52,0.07
		c-0.5,0.03-1,0.07-1.51,0.1c-0.5,0.04-1,0.08-1.5,0.12c-0.5,0.05-0.99,0.1-1.48,0.16c-0.49,0.06-0.98,0.12-1.47,0.19
		c-0.49,0.07-0.98,0.13-1.46,0.21c-0.48,0.08-0.96,0.16-1.45,0.25c-0.48,0.09-0.96,0.18-1.44,0.27c-0.48,0.09-0.95,0.19-1.43,0.29
		c-0.47,0.1-0.94,0.22-1.41,0.33c-0.47,0.11-0.94,0.23-1.41,0.35c-0.47,0.12-0.93,0.25-1.4,0.38c-0.46,0.13-0.92,0.27-1.38,0.41
		c-0.46,0.14-0.92,0.27-1.38,0.42c-0.46,0.15-0.91,0.3-1.36,0.46c-0.45,0.15-0.9,0.31-1.36,0.48c-0.45,0.16-0.9,0.33-1.35,0.5
		c-0.45,0.17-0.89,0.35-1.33,0.53c-0.44,0.18-0.89,0.36-1.33,0.54c-0.44,0.19-0.88,0.38-1.31,0.58c-0.44,0.2-0.87,0.39-1.31,0.6
		c-0.43,0.2-0.87,0.41-1.3,0.62c-0.43,0.21-0.86,0.43-1.29,0.65c-0.4,0.2-0.8,0.4-1.2,0.61c-0.03,0.02-0.06,0.03-0.09,0.05
		c-0.43,0.24-0.85,0.48-1.26,0.72c-0.42,0.25-0.83,0.51-1.24,0.77c-0.42,0.27-0.82,0.54-1.22,0.82c-0.41,0.29-0.81,0.58-1.2,0.87
		c-0.4,0.31-0.79,0.62-1.17,0.94c-0.39,0.33-0.77,0.67-1.14,1.01c-0.38,0.36-0.75,0.72-1.11,1.09c-0.37,0.39-0.73,0.78-1.07,1.18
		c-0.17,0.2-0.34,0.39-0.5,0.59c-0.19,0.23-0.35,0.47-0.53,0.7c-0.35,0.47-0.68,0.95-0.97,1.42c-0.34,0.55-0.63,1.09-0.89,1.64
		c-0.3,0.63-0.55,1.26-0.75,1.89c-0.01,0.02-0.01,0.03-0.02,0.05c-0.21,0.7-0.35,1.4-0.44,2.11c-0.02,0.18-0.03,0.35-0.05,0.53
		c-0.02,0.28-0.04,0.55-0.04,0.83c0,1.27,0.19,2.43,0.54,3.49c0.48,1.44,1.28,2.7,2.42,3.77c0.17,0.16,0.35,0.3,0.52,0.44
		c0.64,0.52,1.33,0.96,2.07,1.3c0.57,0.26,1.17,0.48,1.81,0.64c0.53,0.13,1.09,0.23,1.66,0.29c0.51,0.06,1.03,0.09,1.57,0.09
		c0,0,0.01,0,0.01,0c0.51,0,1.01-0.04,1.51-0.09c0.49-0.05,0.97-0.13,1.45-0.24c0.47-0.1,0.93-0.22,1.4-0.37
		c0.45-0.14,0.9-0.3,1.35-0.49c0.43-0.18,0.87-0.39,1.3-0.62c0.42-0.22,0.84-0.46,1.26-0.72c0.41-0.25,0.81-0.53,1.22-0.82
		c0.4-0.28,0.79-0.59,1.18-0.9c0.38-0.31,0.77-0.64,1.15-0.99c0.37-0.34,0.75-0.69,1.12-1.07c0.36-0.36,0.73-0.74,1.09-1.14
		c0.35-0.39,0.71-0.79,1.06-1.21c0.35-0.41,0.69-0.83,1.03-1.27c0.34-0.43,0.67-0.88,1.01-1.34c0.21-0.29,0.42-0.57,0.63-0.88
		c0.12-0.17,0.24-0.32,0.36-0.49c0.35-0.47,0.68-0.91,1.01-1.33c0.35-0.45,0.7-0.88,1.03-1.28c0.37-0.44,0.72-0.84,1.06-1.21
		c0.38-0.41,0.75-0.79,1.1-1.12c0.36-0.34,0.7-0.64,1.02-0.89c0.04-0.03,0.09-0.05,0.13-0.08c0.4-0.29,0.81-0.54,1.24-0.76
		c0.43-0.22,0.88-0.39,1.34-0.52c0.46-0.14,0.94-0.23,1.43-0.28c0.32-0.03,0.64-0.07,0.97-0.07c0.19,0,0.37,0.02,0.56,0.03
		c0.58,0.03,1.13,0.11,1.65,0.25c0.69,0.19,1.32,0.47,1.89,0.85c1.15,0.76,2.07,1.89,2.78,3.41c0.88,1.91,1.49,4.57,1.82,7.97
		c0.13,1.37,0.22,2.86,0.26,4.47c0.02,0.72,0.03,1.45,0.03,2.22c0,0.55-0.03,1.06-0.07,1.53c-0.09,1.02-0.27,1.84-0.55,2.47
		c-0.22,0.48-0.49,0.86-0.82,1.11c-0.06,0.05-0.15,0.09-0.23,0.14c-0.33,0.2-0.77,0.37-1.34,0.51c-0.42,0.1-0.9,0.18-1.45,0.25
		c-0.46,0.06-0.95,0.1-1.49,0.14c-0.47,0.03-0.99,0.04-1.53,0.05c-0.31,0.01-0.61,0.01-0.94,0.01c-0.2,0-0.4,0.01-0.6,0.01
		c-0.52,0.01-1.03,0.02-1.54,0.03c-0.51,0.01-1.02,0.03-1.53,0.05c-0.51,0.02-1.01,0.05-1.52,0.08c-0.51,0.03-1.01,0.06-1.51,0.1
		c-0.5,0.04-1,0.08-1.5,0.13c-0.5,0.05-0.99,0.1-1.49,0.15c-0.5,0.06-0.99,0.11-1.47,0.18c-0.49,0.07-0.98,0.14-1.46,0.21
		c-0.49,0.08-0.98,0.15-1.45,0.23c-0.49,0.09-0.96,0.18-1.43,0.28c-0.48,0.1-0.96,0.19-1.43,0.29c-0.48,0.11-0.94,0.23-1.41,0.35
		c-0.47,0.12-0.94,0.23-1.4,0.36c-0.47,0.13-0.92,0.27-1.38,0.41c-0.46,0.14-0.92,0.29-1.37,0.44c-0.46,0.15-0.91,0.31-1.36,0.48
		c-0.45,0.17-0.89,0.35-1.33,0.53c-0.44,0.18-0.89,0.36-1.32,0.55c-0.44,0.2-0.87,0.41-1.3,0.61c-0.43,0.21-0.86,0.43-1.28,0.65
		c-0.43,0.23-0.86,0.45-1.27,0.69c-0.61,0.35-1.2,0.72-1.78,1.1c-0.6,0.39-1.17,0.79-1.74,1.21c-0.58,0.43-1.14,0.87-1.69,1.33
		c-0.56,0.47-1.11,0.95-1.64,1.46c-0.08,0.07-0.16,0.14-0.24,0.22c-0.47,0.45-0.92,0.91-1.35,1.37c-0.1,0.11-0.2,0.22-0.3,0.33
		c-0.27,0.3-0.54,0.61-0.8,0.92c-0.14,0.17-0.28,0.34-0.42,0.51c-0.35,0.44-0.68,0.89-1,1.35c-0.15,0.21-0.29,0.42-0.43,0.63
		c-0.32,0.49-0.61,0.98-0.89,1.48c-0.15,0.26-0.29,0.53-0.42,0.79c-0.28,0.54-0.53,1.1-0.76,1.65c-0.14,0.34-0.27,0.68-0.39,1.03
		c-0.22,0.64-0.42,1.28-0.58,1.93c-0.12,0.46-0.22,0.93-0.3,1.4c-0.15,0.81-0.25,1.62-0.31,2.45l-0.07-0.17v1.91v0.39l0.01,0.03
		c0.02,1.36,0.15,2.7,0.38,4.03c0.46,2.55,1.31,5.03,2.57,7.44c0.43,0.82,0.9,1.61,1.39,2.36l0.04,0.09l0.02-0.01
		c0.76,1.15,1.6,2.22,2.52,3.22c1.06,1.15,2.22,2.19,3.49,3.13c0.19,0.14,0.37,0.29,0.57,0.42c0.77,0.53,1.58,1.01,2.42,1.46
		c0.87,0.47,1.79,0.89,2.74,1.28c0.84,0.34,1.7,0.64,2.6,0.92c0.81,0.25,1.64,0.46,2.49,0.65c0.78,0.18,1.59,0.33,2.41,0.46
		c0.77,0.12,1.55,0.23,2.35,0.31c0.76,0.08,1.52,0.15,2.31,0.19c0.73,0.04,1.49,0.05,2.25,0.06l0.01,0.02h0.66
		c0.52,0,1.03-0.04,1.55-0.06c0.73-0.03,1.46-0.07,2.17-0.13c0.5-0.05,0.99-0.1,1.48-0.17c0.49-0.06,0.97-0.14,1.46-0.22
		c0.48-0.08,0.96-0.17,1.44-0.28c0.47-0.1,0.94-0.22,1.41-0.34c0.47-0.12,0.93-0.25,1.39-0.39c0.46-0.14,0.91-0.29,1.37-0.45
		c0.45-0.16,0.9-0.32,1.35-0.49c0.44-0.18,0.88-0.37,1.32-0.56c0.44-0.19,0.87-0.39,1.3-0.6c0.43-0.21,0.85-0.44,1.28-0.67
		c0.42-0.23,0.84-0.46,1.26-0.71c0.42-0.25,0.82-0.51,1.23-0.78c0.41-0.27,0.82-0.53,1.22-0.82c0.15-0.11,0.31-0.2,0.46-0.31
		c0.25-0.19,0.5-0.37,0.74-0.54c0.43-0.3,0.84-0.56,1.23-0.79c0.46-0.26,0.88-0.48,1.29-0.64c0.5-0.21,0.97-0.34,1.39-0.39
		c0.14-0.02,0.28-0.03,0.41-0.03c0.41,0,0.83,0.11,1.26,0.32c0.76,0.37,1.55,1.05,2.38,2.06c0.03,0.04,0.06,0.07,0.09,0.1
		c0.77,0.9,1.6,1.69,2.48,2.42c0.7,0.58,1.42,1.11,2.18,1.57c0.63,0.38,1.29,0.73,1.97,1.04c0.59,0.27,1.21,0.5,1.83,0.71
		c0.57,0.19,1.15,0.35,1.74,0.49c0.55,0.13,1.11,0.24,1.68,0.33c0.54,0.08,1.08,0.17,1.64,0.22c0.51,0.04,1.04,0.05,1.58,0.07
		l0.01,0.03h0.75h0.8l-0.01-0.03c0.51-0.01,1.01-0.04,1.52-0.08c0.5-0.04,0.99-0.09,1.49-0.15c0.49-0.07,0.97-0.15,1.45-0.24
		c0.48-0.09,0.95-0.19,1.42-0.31c0.47-0.11,0.93-0.23,1.4-0.37c0.46-0.14,0.92-0.28,1.37-0.43c0.45-0.16,0.89-0.34,1.34-0.52
		c0.44-0.18,0.88-0.37,1.32-0.57c0.43-0.2,0.87-0.4,1.3-0.62c0.42-0.22,0.85-0.45,1.27-0.69c0.11-0.07,0.23-0.12,0.35-0.19
		c0.31-0.18,0.61-0.36,0.91-0.55c0.42-0.26,0.83-0.52,1.23-0.79c0.41-0.28,0.81-0.56,1.2-0.85c0.4-0.3,0.79-0.6,1.18-0.92
		c0.39-0.32,0.78-0.65,1.15-0.99c0.38-0.35,0.76-0.7,1.12-1.07c0.37-0.37,0.73-0.76,1.08-1.15c0.36-0.4,0.71-0.82,1.05-1.24
		c0.2-0.25,0.4-0.5,0.59-0.76c0.15-0.2,0.27-0.39,0.41-0.59c0.34-0.49,0.66-0.98,0.95-1.47c0.33-0.55,0.63-1.1,0.89-1.64
		c0.31-0.65,0.56-1.3,0.76-1.94c0.27-0.83,0.46-1.64,0.56-2.45c0.06-0.49,0.1-0.98,0.1-1.46
		C221.73,172.44,220.98,171.18,219.51,170.65z M170.42,164.04L170.42,164.04c-0.03,1.16-0.11,2.25-0.24,3.24
		c-0.12,0.93-0.29,1.79-0.51,2.57v0c-0.2,0.74-0.45,1.41-0.73,2.02l0,0c-0.27,0.58-0.58,1.09-0.92,1.55c-0.33,0.43-0.7,0.8-1.1,1.12
		c-0.38,0.31-0.8,0.55-1.24,0.75v0c-0.43,0.19-0.89,0.34-1.37,0.43c-0.47,0.09-0.96,0.15-1.49,0.15c-0.01,0-0.01,0-0.02,0
		c-0.56,0-1.08-0.06-1.59-0.15h0c-0.64-0.13-1.24-0.33-1.79-0.61c-0.87-0.44-1.64-1.08-2.32-1.9l0,0c-0.04-0.05-0.09-0.09-0.13-0.15
		c-1.11-1.42-1.8-3.19-2.07-5.29v0c-0.09-0.67-0.13-1.38-0.13-2.12c0-0.6,0.05-1.17,0.12-1.74c0.11-0.84,0.3-1.66,0.57-2.43v0
		c0.22-0.63,0.49-1.23,0.82-1.81c0.28-0.5,0.6-0.99,0.96-1.46c0.2-0.26,0.41-0.52,0.64-0.77c0.14-0.15,0.28-0.29,0.42-0.43
		c0.37-0.37,0.74-0.72,1.13-1.02c0,0,0,0,0,0c0.4-0.31,0.8-0.57,1.22-0.81c0.42-0.24,0.86-0.44,1.3-0.61
		c0.45-0.17,0.91-0.3,1.39-0.39c0.48-0.09,0.98-0.15,1.48-0.16c0.12,0,0.24-0.02,0.36-0.02c0.45,0.01,0.85,0.06,1.24,0.13
		c0.71,0.13,1.32,0.34,1.81,0.66c0.46,0.29,0.83,0.67,1.11,1.12c0.5,0.82,0.82,2.18,0.98,4.04v0c0.08,0.89,0.12,1.89,0.12,3.02
		C170.44,163.35,170.43,163.69,170.42,164.04z"/>
</g>
<g>
	<g>
		<path class="st0" d="M280.22,98.79c11.34,0,21.33,2.83,29.99,8.5c8.22,5.41,12.32,12.13,12.32,20.15c0,5.54-1.91,10.03-5.73,13.47
			c-3.57,3.25-7.87,4.87-12.89,4.87c-5.29,0-9.27-1.91-11.94-5.73c-0.83-1.21-2.04-4.3-3.63-9.27c-1.72-5.35-5-8.02-9.84-8.02
			c-3.5,0-6.45,1.53-8.84,4.58c-2.39,3.06-3.58,6.81-3.58,11.27c0,7.64,2.74,14.42,8.21,20.35c4.46,4.78,10.06,7.16,16.81,7.16
			c3.18,0,5.86-0.27,8.02-0.81c2.16-0.54,5-1.64,8.5-3.3c0.89-0.44,1.88-0.67,2.96-0.67c2.16,0,4.07,1.02,5.73,3.06
			c1.66,2.04,2.48,4.43,2.48,7.16c0,2.87-1.18,5.87-3.53,9.03c-2.36,3.15-5.44,5.91-9.27,8.26c-8.28,5.09-18.05,7.64-29.33,7.64
			c-13.12,0-24.29-3.82-33.53-11.46c-11.84-9.68-17.77-22-17.77-36.97c0-14.39,5.51-26.3,16.53-35.72
			C252.43,103.32,265.19,98.79,280.22,98.79z"/>
	</g>
</g>
<g>
	<g>
		<path class="st0" d="M381.48,74.15l-1.24,34.1c-0.13,4.78,1.34,7.16,4.39,7.16c1.53,0,3.02-1.05,4.49-3.15
			c6.18-8.98,14.42-13.47,24.74-13.47c10.13,0,18.18,3.09,24.17,9.27c2.68,2.74,4.57,5.99,5.68,9.74c1.11,3.76,1.74,9.14,1.86,16.14
			l0.86,34.48c0.06,2.99,0.46,5.19,1.19,6.59c0.73,1.4,2.43,3.15,5.11,5.25c1.85,1.47,2.77,3.22,2.77,5.25
			c0,6.88-10.38,10.32-31.14,10.32c-18.47,0-27.7-3.21-27.7-9.65c0-1.08,0.16-1.91,0.48-2.48c0.32-0.57,1.43-2.1,3.34-4.59
			c2.67-3.5,4.01-12.26,4.01-26.27c0-8.47-0.8-14.65-2.39-18.53c-2.1-5.28-5.86-7.93-11.27-7.93c-3.88,0-6.75,1.4-8.6,4.2
			c-1.34,2.04-2,5.86-2,11.46v18.44c0.44,8.15,0.83,12.77,1.15,13.85c0.32,1.08,1.78,3.09,4.39,6.02c1.21,1.34,1.82,2.9,1.82,4.68
			c0,7.2-9.36,10.79-28.08,10.79c-21.91,0-32.86-3.73-32.86-11.18c0-1.72,0.35-3.04,1.05-3.96c0.7-0.92,2.42-2.34,5.16-4.25
			c2.42-1.72,4.09-6.35,5.01-13.9c0.92-7.55,1.39-20.04,1.39-37.49c0-13.69-0.38-17.26-1.15-22.54c-0.26-1.97-0.72-3.42-1.39-4.35
			c-0.67-0.92-1.93-1.86-3.77-2.82c-3.95-2.04-5.92-4.39-5.92-7.07c0-3.18,1.5-5.76,4.49-7.74c2.99-1.97,8.72-4.11,17.19-6.4
			c11.46-3.18,20.6-4.78,27.42-4.78C379.82,69.37,381.6,70.97,381.48,74.15z"/>
	</g>
</g>
<g>
	<g>
		<path class="st0" d="M515.68,98.7c11.08,0,20.47,2.8,28.18,8.41c4.07,2.99,6.93,6.42,8.55,10.27c1.62,3.85,2.44,9.15,2.44,15.9
			l-0.19,14.23c0,9.87,0.7,16.27,2.1,19.2c0.7,1.4,1.37,2.29,2.01,2.67s1.97,0.73,4.01,1.05c2.04,0.32,3.06,1.66,3.06,4.01
			c0,3.06-1.23,6.24-3.68,9.55c-2.45,3.31-5.62,6.08-9.5,8.31c-4.78,2.8-9.78,4.2-15,4.2c-6.69,0-11.97-2.29-15.86-6.88
			c-1.34-1.65-2.58-2.48-3.73-2.48c-1.27,0-2.96,0.8-5.06,2.39c-6.37,4.65-13.6,6.97-21.68,6.97c-8.34,0-15.09-1.78-20.25-5.35
			c-3.38-2.36-6.05-5.43-8.02-9.22c-1.98-3.79-2.96-7.75-2.96-11.89c0-6.62,2.67-12.48,8.02-17.58
			c8.34-8.02,20.82-12.07,37.44-12.13c3.69,0,6.02-0.37,6.97-1.1c0.95-0.73,1.43-2.44,1.43-5.11c0-6.75-0.7-11.64-2.1-14.66
			c-1.4-3.02-3.69-4.54-6.88-4.54c-1.91,0-3.61,0.57-5.11,1.72c-1.5,1.15-3.36,3.25-5.59,6.3c-5.67,8.09-11.59,12.13-17.77,12.13
			c-3.12,0-5.67-0.92-7.64-2.77c-1.98-1.85-2.96-4.27-2.96-7.26c0-3.06,1.23-6.11,3.68-9.17c2.45-3.06,5.78-5.73,9.98-8.02
			C491.1,101.75,503.13,98.7,515.68,98.7z M509.28,154c-2.8,0-5.24,1.15-7.31,3.44c-2.07,2.29-3.1,5.03-3.1,8.21
			c0,3.06,0.73,5.53,2.2,7.4c1.46,1.88,3.41,2.82,5.83,2.82c5.09,0,7.64-4.3,7.64-12.9c0-3.5-0.37-5.86-1.1-7.07
			C512.7,154.71,511.32,154.07,509.28,154z"/>
	</g>
</g>
<g>
	<g>
		<path class="st0" d="M625.15,104.3v56.58c0,4.39,0.4,7.61,1.19,9.65c0.8,2.04,2.4,3.92,4.82,5.64c1.97,1.4,3.3,2.6,3.96,3.58
			c0.67,0.99,1,2.24,1,3.77c0,8.22-10.41,12.32-31.23,12.32c-11.21,0-20.09-0.89-26.65-2.67c-2.23-0.64-4.03-1.75-5.4-3.34
			c-1.37-1.59-2.05-3.41-2.05-5.45c0-1.72,0.35-3.06,1.05-4.01c0.7-0.95,2.48-2.48,5.35-4.58c1.97-1.46,3.37-3.85,4.2-7.16
			c0.83-3.31,1.24-8.25,1.24-14.81c0-2.1-0.14-6.03-0.43-11.8c-0.29-5.76-0.49-10.2-0.62-11.16c-0.38-2.61-2.17-4.62-5.35-6.02
			c-3.95-1.72-5.92-4.27-5.92-7.64c0-4.01,2.58-7,7.74-8.98c7.13-2.74,14.77-5.06,22.93-6.97c8.15-1.91,14.45-2.87,18.91-2.87
			C623.39,98.38,625.15,100.35,625.15,104.3z"/>
	</g>
</g>
<g>
	<g>
		<g>
			<path class="st5" d="M87.36,3.17h-2.82h-2.82c-4.36,0.42-8.44,1.81-12.01,3.94c-1.28,0.76-2.5,1.62-3.64,2.57
				c-1.56,1.29-2.99,2.74-4.24,4.33c-3.64,4.58-5.92,10.29-6.23,16.51v2.99C56.01,41.9,60,49.34,66.07,54.36
				c5.01,4.15,11.45,6.65,18.47,6.65c0.61,0,1.21-0.02,1.82-0.06c0.2-0.01,0.39-0.04,0.59-0.05c0.4-0.03,0.8-0.07,1.2-0.12
				c0.23-0.03,0.46-0.07,0.69-0.1c0.36-0.05,0.71-0.11,1.07-0.17c0.24-0.04,0.48-0.1,0.71-0.15c0.34-0.07,0.67-0.15,1.01-0.23
				c0.24-0.06,0.48-0.12,0.71-0.19c0.33-0.09,0.65-0.19,0.97-0.29c0.23-0.07,0.47-0.15,0.7-0.23c0.32-0.11,0.64-0.23,0.95-0.35
				c0.22-0.09,0.45-0.17,0.67-0.26c0.32-0.13,0.64-0.28,0.96-0.42c0.2-0.09,0.41-0.18,0.61-0.28c0.06-0.03,0.12-0.05,0.18-0.08
				c0.01-0.01,0.02-0.02,0.03-0.03c0.41-0.21,0.83-0.41,1.23-0.64l-6.83-8.04c-0.42,0.18-0.86,0.33-1.3,0.47
				c-0.23,0.08-0.45,0.15-0.68,0.22c-0.34,0.1-0.69,0.18-1.04,0.27c-0.22,0.05-0.44,0.11-0.67,0.15c-0.39,0.07-0.78,0.13-1.18,0.18
				c-0.2,0.02-0.39,0.06-0.58,0.08c-0.6,0.06-1.2,0.09-1.81,0.09c-9.25,0-16.94-6.71-18.47-15.52c-0.19-1.05-0.29-2.14-0.29-3.24
				c0-1.11,0.1-2.19,0.29-3.24c0.42-2.44,1.31-4.71,2.59-6.73c1.88-3,4.6-5.44,7.82-6.98c2.44-1.16,5.18-1.81,8.06-1.81
				c10.36,0,18.76,8.4,18.76,18.76c0,3.68-1.06,7.1-2.89,10c-0.27,0.42-0.24,0.96,0.08,1.34l5.35,6.3c0.46,0.55,1.31,0.52,1.75-0.05
				c3.73-4.88,5.94-10.97,5.94-17.59C113.53,16.96,102.05,4.58,87.36,3.17z"/>
		</g>
		<g>
			<path class="st5" d="M84.54,62.49c-7.08,0-13.98-2.48-19.42-6.99c-6.57-5.43-10.58-13.42-11.01-21.91l0-3.06
				c0.32-6.44,2.59-12.44,6.56-17.43c1.31-1.66,2.81-3.2,4.46-4.56c1.18-0.99,2.47-1.9,3.83-2.7c3.88-2.32,8.13-3.71,12.63-4.14
				l5.77-0.01c0.05,0,0.1,0,0.14,0.01c15.68,1.51,27.51,14.55,27.51,30.33c0,6.75-2.16,13.14-6.25,18.48
				c-0.48,0.63-1.22,1.01-2.01,1.02c-0.7-0.03-1.54-0.31-2.05-0.92l-5.34-6.3c-0.74-0.86-0.82-2.11-0.2-3.08
				c1.74-2.75,2.66-5.94,2.66-9.21c0-9.53-7.75-17.28-17.28-17.28c-2.6,0-5.1,0.56-7.43,1.67c-2.97,1.42-5.46,3.64-7.21,6.43
				c-1.2,1.9-2,3.99-2.38,6.19c-0.18,0.97-0.27,1.97-0.27,2.99s0.09,2.02,0.26,2.98c1.44,8.29,8.59,14.3,17.02,14.3
				c0.57,0,1.12-0.03,1.67-0.08l0.29-0.02l0.24-0.05c0.36-0.05,0.73-0.09,1.09-0.17l0.42-0.09c0.53-0.12,0.84-0.2,1.15-0.29
				l0.43-0.14c0.62-0.21,1.02-0.34,1.41-0.51c0.59-0.24,1.28-0.08,1.7,0.41l6.83,8.04c0.29,0.34,0.41,0.78,0.33,1.22
				c-0.08,0.43-0.35,0.81-0.73,1.03c-0.39,0.22-0.78,0.42-1.18,0.61l0,0c-0.05,0.03-0.1,0.06-0.15,0.09l-0.86,0.39
				c-0.3,0.14-0.64,0.29-0.97,0.43l-0.71,0.28c-0.34,0.13-0.67,0.25-1.01,0.37l-2.5,0.75c-0.35,0.09-0.71,0.17-1.07,0.24l-0.74,0.15
				c-0.37,0.07-0.75,0.13-1.12,0.18l-0.73,0.11c-0.42,0.05-0.84,0.09-1.26,0.12l-0.62,0.06C85.82,62.47,85.18,62.49,84.54,62.49z
				 M81.72,4.65c-3.91,0.38-7.75,1.64-11.25,3.73c-1.22,0.73-2.38,1.55-3.45,2.44c-1.49,1.23-2.84,2.61-4.03,4.11
				c-3.59,4.51-5.63,9.93-5.92,15.67l0,2.91c0.38,7.59,4.01,14.8,9.94,19.71c5.35,4.44,12.37,6.72,19.25,6.26
				c0.01,0,0.54-0.05,0.55-0.05c0.39-0.03,0.77-0.06,1.15-0.11l0.47-0.07c0.52-0.08,0.86-0.13,1.19-0.19l0.64-0.14
				c0.37-0.08,0.69-0.15,1-0.23l2.26-0.68c0.31-0.1,0.6-0.21,0.9-0.33l1.87-0.8l-4.94-5.82c-0.11,0.04-0.23,0.08-0.34,0.12
				l-0.76,0.24c-0.38,0.11-0.75,0.2-1.14,0.29l-0.73,0.17c-0.4,0.08-0.83,0.14-1.26,0.19l-0.62,0.08
				C76,53.18,66.4,45.87,64.61,35.52c-0.2-1.12-0.31-2.3-0.31-3.49c0-1.19,0.1-2.37,0.31-3.5c0.44-2.57,1.38-5.02,2.79-7.25
				c2.04-3.26,4.96-5.86,8.44-7.52c2.73-1.3,5.66-1.96,8.7-1.96c11.16,0,20.24,9.08,20.24,20.24c0,3.75-1.03,7.4-2.99,10.58
				l4.88,5.75c3.52-4.75,5.37-10.39,5.37-16.33c0-14.22-10.64-25.98-24.76-27.37H81.72z"/>
		</g>
	</g>
	<g>
		<g>
			<circle class="st5" cx="84.56" cy="32.09" r="6.47"/>
		</g>
		<g>
			<path class="st5" d="M84.56,40.04c-4.39,0-7.95-3.57-7.95-7.96s3.57-7.95,7.95-7.95c4.38,0,7.95,3.57,7.95,7.95
				S88.95,40.04,84.56,40.04z M84.56,27.1c-2.75,0-4.99,2.24-4.99,4.99c0,2.75,2.24,4.99,4.99,4.99c2.75,0,4.99-2.24,4.99-4.99
				C89.55,29.34,87.31,27.1,84.56,27.1z"/>
		</g>
	</g>
	<g>
		<g>
			<circle class="st5" cx="84.56" cy="32.09" r="6.47"/>
		</g>
		<g>
			<path class="st5" d="M84.56,40.04c-4.39,0-7.95-3.57-7.95-7.96s3.57-7.95,7.95-7.95c4.38,0,7.95,3.57,7.95,7.95
				S88.95,40.04,84.56,40.04z M84.56,27.1c-2.75,0-4.99,2.24-4.99,4.99c0,2.75,2.24,4.99,4.99,4.99c2.75,0,4.99-2.24,4.99-4.99
				C89.55,29.34,87.31,27.1,84.56,27.1z"/>
		</g>
	</g>
</g>
</svg>
