<svg width="220" height="48" viewBox="0 0 220 48" fill="none" xmlns="http://www.w3.org/2000/svg">
<g clip-path="url(#clip0_301_3253)">
<path d="M31.1315 11.5593C33.91 13.0186 36.0803 15.519 37.1407 18.7573C37.5024 19.864 37.7491 20.9708 37.8806 22.0775C38.2259 24.9797 37.7819 27.849 36.5406 30.6773C36.442 30.9069 36.4338 31.3496 36.5735 31.4808C38.9082 33.6287 41.2675 35.7356 43.6021 37.8425C43.7008 37.7933 43.7583 37.7851 43.7994 37.7523C43.9392 37.6294 44.0789 37.5064 44.2105 37.367C45.7559 35.8094 46.9644 34.096 47.8522 32.2514C47.2767 22.3481 40.3879 14.1335 31.1315 11.5593Z" fill="url(#paint0_linear_301_3253)"/>
<path d="M13.7202 16.6585C14.9944 14.3549 16.918 12.5431 19.3185 11.4117C20.6666 10.7805 22.171 10.3624 23.7822 10.1902C26.4375 9.91969 28.9694 10.4198 31.1315 11.5511C40.3879 14.1253 47.2767 22.3398 47.8522 32.2514C48.0495 31.8497 48.2221 31.4398 48.3865 31.0299C49.1922 28.9885 49.6278 26.7914 49.6854 24.455C49.9238 15.8469 46.7835 8.82934 39.4096 4.07443C38.7191 3.62353 38.0121 3.22183 37.2969 2.85291C36.4831 2.76273 35.661 2.72174 34.8307 2.72174C25.3524 2.72174 17.2058 8.46862 13.7202 16.6585Z" fill="url(#paint1_linear_301_3253)"/>
<path d="M19.5568 36.8096C17.2222 35.793 15.167 34.0386 13.7942 31.5054C12.4295 28.9803 11.9199 26.2914 11.9938 23.504C12.0021 23.1433 12.0185 22.7744 12.0514 22.4055C12.0596 22.3481 12.0596 22.2825 12.0678 22.2251C12.2487 20.1674 12.8159 18.29 13.7202 16.6668C17.2057 8.47685 25.3523 2.72997 34.8389 2.72997C35.6692 2.72997 36.4913 2.77916 37.3051 2.86114C31.6576 -0.0819883 25.5168 -0.606668 19.1787 0.639446C11.7308 2.10691 5.96814 6.04201 2.47438 12.9202C1.3646 15.1091 0.665845 17.3554 0.304138 19.6427C2.54014 28.6688 10.1524 35.5798 19.5568 36.8096ZM8.84536 6.83722C8.84536 6.48471 9.13308 6.20597 9.47834 6.20597H12.6104C12.9639 6.20597 13.2434 6.4929 13.2434 6.83722V9.96071C13.2434 10.3132 12.9557 10.592 12.6104 10.592H9.47834C9.12486 10.592 8.84536 10.305 8.84536 9.96071V6.83722ZM4.50487 15.0189V11.8955C4.50487 11.5429 4.79259 11.2642 5.13786 11.2642H8.26991C8.6234 11.2642 8.9029 11.5511 8.9029 11.8955V15.0189C8.9029 15.3715 8.61518 15.6502 8.26991 15.6502H5.13786C4.78437 15.6584 4.50487 15.3715 4.50487 15.0189Z" fill="url(#paint2_linear_301_3253)"/>
<path d="M50.491 46.9752C49.5703 46.1472 48.6578 45.3274 47.7453 44.4994C47.137 43.9583 46.5369 43.4091 45.9286 42.868C42.3608 39.6543 38.8013 36.4489 35.2089 33.2188C35.1596 33.1778 35.1185 33.1368 35.0692 33.0958C34.9047 33.2762 34.7732 33.4319 34.6417 33.5795C34.5677 33.6615 34.5019 33.7435 34.428 33.8255C32.603 35.8914 30.0217 37.2031 27.2596 37.6868L50.5568 47.1884C50.5732 47.1146 50.5568 47.0326 50.491 46.9752Z" fill="url(#paint3_linear_301_3253)"/>
<path d="M27.2678 37.6868C24.7029 38.1377 21.9819 37.8671 19.5569 36.8096C10.1525 35.5798 2.54018 28.6688 0.304177 19.6427C-0.164398 22.6104 -0.065751 25.6437 0.419265 28.718C0.61656 29.9887 0.904281 31.2102 1.27421 32.3908C1.49617 33.0876 1.751 33.7763 2.03873 34.4403C3.23893 37.2195 5.01459 39.7035 7.45611 41.8022C11.7884 45.5324 16.9756 47.1884 22.5738 47.2868C24.3166 47.3196 26.0511 47.3442 27.7939 47.3605C32.4632 47.4015 37.1325 47.4015 41.81 47.3933C42.2951 47.3933 42.7801 47.3933 43.2569 47.3933C45.6244 47.3851 47.9837 47.3851 50.3513 47.3933C50.3513 47.3933 50.3513 47.3933 50.3595 47.3933C50.4828 47.3933 50.565 47.295 50.5732 47.1884L27.2678 37.6868Z" fill="url(#paint4_linear_301_3253)"/>
<path d="M4.38937 10.1657H4.01126C3.02489 10.1657 2.22757 9.37047 2.22757 8.3867V8.00958C2.22757 7.02581 3.02489 6.23059 4.01126 6.23059H4.38937C5.37574 6.23059 6.17305 7.02581 6.17305 8.00958V8.3867C6.17305 9.37047 5.37574 10.1657 4.38937 10.1657Z" fill="url(#paint5_linear_301_3253)"/>
<path d="M9.95495 4.82047H9.57684C8.59047 4.82047 7.79315 4.02526 7.79315 3.04148V2.66437C7.79315 1.68059 8.59047 0.885376 9.57684 0.885376H9.95495C10.9413 0.885376 11.7386 1.68059 11.7386 2.66437V3.04148C11.7386 4.02526 10.9413 4.82047 9.95495 4.82047Z" fill="url(#paint6_linear_301_3253)"/>
<path d="M4.69375 4.47618H4.31564C3.32927 4.47618 2.53195 3.68096 2.53195 2.69718V2.32007C2.53195 1.33629 3.32927 0.541077 4.31564 0.541077H4.69375C5.68012 0.541077 6.47744 1.33629 6.47744 2.32007V2.69718C6.47744 3.68096 5.68012 4.47618 4.69375 4.47618Z" fill="url(#paint7_linear_301_3253)"/>
<path d="M70.9603 41.4825C73.1881 41.4825 75.0295 40.8922 76.501 39.7035C77.9643 38.5147 78.7535 37.0473 78.8521 35.3011H87.2536C87.1549 37.5638 86.3822 39.6707 84.9436 41.63C83.4968 43.5894 81.5403 45.1388 79.0741 46.2784C76.5997 47.4179 73.9362 47.9918 71.0754 47.9918C65.5265 47.9918 61.1203 46.344 57.8731 43.0565C54.6178 39.7691 52.9983 35.2191 52.9983 29.423V28.5868C52.9983 23.0613 54.6095 18.6343 57.8402 15.3059C61.0709 11.9856 65.469 10.3214 71.0425 10.3214C75.7612 10.3214 79.6084 11.5839 82.576 14.1007C85.5437 16.6176 87.1056 19.9296 87.2536 24.0205H78.8521C78.7535 21.9381 77.9807 20.2247 76.5257 18.8802C75.0706 17.5358 73.221 16.8635 70.9685 16.8635C68.0831 16.8635 65.8553 17.8227 64.2934 19.7329C62.7315 21.643 61.9341 24.5534 61.9094 28.4475V29.7592C61.9094 33.7025 62.6822 36.6374 64.2359 38.5721C65.7813 40.5151 68.0256 41.4825 70.9603 41.4825Z" fill="url(#paint8_linear_301_3253)"/>
<path d="M87.8126 28.8246C87.8126 25.2666 88.5853 22.0611 90.1226 19.2082C91.6598 16.3552 93.8301 14.1581 96.6169 12.6251C99.4037 11.092 102.61 10.3214 106.227 10.3214C111.587 10.3214 115.927 11.8955 119.265 15.0517C122.602 18.208 124.403 22.3972 124.674 27.6112L124.707 29.5214C124.707 33.104 123.959 36.3013 122.454 39.1214C120.95 41.9416 118.796 44.1223 116.001 45.6717C113.198 47.213 109.967 47.9918 106.301 47.9918C100.703 47.9918 96.2223 46.2866 92.86 42.868C89.4978 39.4575 87.8126 34.9076 87.8126 29.2181V28.8246ZM96.732 29.5296C96.732 33.268 97.5787 36.1947 99.2639 38.3098C100.949 40.4249 103.3 41.4825 106.309 41.4825C109.318 41.4825 111.661 40.4085 113.338 38.2606C115.015 36.1127 115.853 32.9646 115.853 28.8246C115.853 25.1518 114.99 22.2415 113.264 20.0936C111.537 17.9457 109.194 16.8717 106.235 16.8717C103.325 16.8717 101.015 17.9293 99.305 20.0444C97.5869 22.1595 96.732 25.324 96.732 29.5296Z" fill="url(#paint9_linear_301_3253)"/>
<path d="M125.521 28.8246C125.521 25.2666 126.293 22.0611 127.83 19.2082C129.368 16.3552 131.538 14.1581 134.325 12.6251C137.112 11.092 140.318 10.3214 143.935 10.3214C149.286 10.3214 153.635 11.8955 156.973 15.0517C160.31 18.208 162.11 22.3972 162.382 27.6112L162.415 29.5214C162.415 33.104 161.667 36.3013 160.162 39.1214C158.658 41.9416 156.504 44.1223 153.709 45.6717C150.906 47.213 147.675 47.9918 144.009 47.9918C138.41 47.9918 133.93 46.2866 130.568 42.868C127.206 39.4575 125.521 34.9076 125.521 29.2181V28.8246ZM134.432 29.5296C134.432 33.268 135.278 36.1947 136.964 38.3098C138.649 40.4249 141 41.4825 144.009 41.4825C147.017 41.4825 149.36 40.4085 151.037 38.2606C152.714 36.1127 153.553 32.9646 153.553 28.8246C153.553 25.1518 152.69 22.2415 150.963 20.0936C149.237 17.9457 146.894 16.8717 143.935 16.8717C141.025 16.8717 138.715 17.9293 137.005 20.0444C135.287 22.1595 134.432 25.324 134.432 29.5296Z" fill="url(#paint10_linear_301_3253)"/>
<path d="M219.992 22.8235V47.5491H207.636V24.7665C207.636 22.8727 207.307 21.4955 206.65 20.651C205.992 19.8066 204.734 19.3803 202.885 19.3803C200.517 19.3803 198.339 20.3723 197.097 22.3563L197.106 15.601C199.909 12.3218 203.674 10.6821 208.401 10.6821C213.399 10.6821 216.769 12.5021 218.529 16.1339C218.529 16.1339 219.934 18.5441 219.992 22.8235Z" fill="url(#paint11_linear_301_3253)"/>
<g opacity="0.7">
<path opacity="0.7" d="M206.624 20.6511C205.967 19.8067 204.709 19.3804 202.859 19.3804C200.492 19.3804 198.314 20.3723 197.073 22.3563L197.081 15.601C200.928 10.8871 207.15 11.6659 206.624 20.5281" fill="url(#paint12_linear_301_3253)"/>
</g>
<path d="M218.545 16.1257C218.545 16.1257 219.951 18.5359 220.008 22.8153V47.5409H207.653V42.8597C207.653 42.8515 216.383 31.0299 218.545 16.1257Z" fill="url(#paint13_linear_301_3253)"/>
<path d="M198.881 22.8235V47.5491H186.525V24.7665C186.525 22.8727 186.197 21.4955 185.539 20.651C184.881 19.8066 183.624 19.3803 181.774 19.3803C179.406 19.3803 177.228 20.3723 175.987 22.3563L175.995 15.601C178.798 12.3218 182.563 10.6821 187.29 10.6821C192.288 10.6821 195.658 12.5021 197.418 16.1339C197.418 16.1339 198.823 18.5441 198.881 22.8235Z" fill="url(#paint14_linear_301_3253)"/>
<path d="M197.393 16.1257C197.393 16.1257 198.799 18.5359 198.857 22.8153V47.5409H186.501V42.8597C186.501 42.8597 195.231 31.0381 197.393 16.1257Z" fill="url(#paint15_linear_301_3253)"/>
<g opacity="0.7">
<path opacity="0.7" d="M185.53 20.6511C184.872 19.8067 183.615 19.3804 181.765 19.3804C179.398 19.3804 177.22 20.3723 175.979 22.3563L175.987 15.601C179.834 10.8871 186.056 11.6659 185.53 20.5281" fill="url(#paint16_linear_301_3253)"/>
</g>
<path d="M176.003 10.3297H163.574V47.4016H176.003V10.3297Z" fill="url(#paint17_linear_301_3253)"/>
<path d="M176.094 10.264V47.3359H163.672V35.8586C163.672 35.8586 172.197 28.5295 176.094 10.264Z" fill="url(#paint18_linear_301_3253)"/>
</g>
<defs>
<linearGradient id="paint0_linear_301_3253" x1="33.4356" y1="30.4729" x2="42.4674" y2="18.0076" gradientUnits="userSpaceOnUse">
<stop stop-color="#79BC62"/>
<stop offset="0.2239" stop-color="#74B65E"/>
<stop offset="0.509" stop-color="#64A854"/>
<stop offset="0.826" stop-color="#4C9146"/>
<stop offset="1" stop-color="#3D833E"/>
</linearGradient>
<linearGradient id="paint1_linear_301_3253" x1="34.4969" y1="34.6062" x2="29.0077" y2="3.3895" gradientUnits="userSpaceOnUse">
<stop offset="0.0108" stop-color="#68B548"/>
<stop offset="0.2343" stop-color="#63B047"/>
<stop offset="0.5191" stop-color="#54A344"/>
<stop offset="0.8357" stop-color="#3D8E3F"/>
<stop offset="1" stop-color="#2E813C"/>
</linearGradient>
<linearGradient id="paint2_linear_301_3253" x1="37.3017" y1="18.4041" x2="0.304548" y2="18.4041" gradientUnits="userSpaceOnUse">
<stop stop-color="#79BC62"/>
<stop offset="0.1299" stop-color="#6EB86A"/>
<stop offset="0.6865" stop-color="#36AC82"/>
<stop offset="1" stop-color="#00A88A"/>
</linearGradient>
<linearGradient id="paint3_linear_301_3253" x1="4.32772e-05" y1="40.1414" x2="50.5687" y2="40.1414" gradientUnits="userSpaceOnUse">
<stop stop-color="#79BC62"/>
<stop offset="0.1299" stop-color="#6EB86A"/>
<stop offset="0.6865" stop-color="#36AC82"/>
<stop offset="1" stop-color="#00A88A"/>
</linearGradient>
<linearGradient id="paint4_linear_301_3253" x1="2.90247" y1="39.093" x2="45.8566" y2="28.354" gradientUnits="userSpaceOnUse">
<stop stop-color="#01977F"/>
<stop offset="1" stop-color="#1C705C"/>
</linearGradient>
<linearGradient id="paint5_linear_301_3253" x1="2.2279" y1="8.19527" x2="6.177" y2="8.19527" gradientUnits="userSpaceOnUse">
<stop stop-color="#231F20"/>
<stop offset="1" stop-color="#D01E22"/>
</linearGradient>
<linearGradient id="paint6_linear_301_3253" x1="7.78912" y1="2.85383" x2="11.7382" y2="2.85383" gradientUnits="userSpaceOnUse">
<stop stop-color="#231F20"/>
<stop offset="1" stop-color="#D01E22"/>
</linearGradient>
<linearGradient id="paint7_linear_301_3253" x1="2.53064" y1="2.51076" x2="6.47974" y2="2.51076" gradientUnits="userSpaceOnUse">
<stop stop-color="#231F20"/>
<stop offset="1" stop-color="#D01E22"/>
</linearGradient>
<linearGradient id="paint8_linear_301_3253" x1="52.9868" y1="29.1635" x2="87.2489" y2="29.1635" gradientUnits="userSpaceOnUse">
<stop stop-color="#851811"/>
<stop offset="1" stop-color="#D01E22"/>
</linearGradient>
<linearGradient id="paint9_linear_301_3253" x1="87.8151" y1="29.1635" x2="124.718" y2="29.1635" gradientUnits="userSpaceOnUse">
<stop stop-color="#851811"/>
<stop offset="1" stop-color="#D01E22"/>
</linearGradient>
<linearGradient id="paint10_linear_301_3253" x1="125.52" y1="29.1635" x2="162.423" y2="29.1635" gradientUnits="userSpaceOnUse">
<stop stop-color="#851811"/>
<stop offset="1" stop-color="#D01E22"/>
</linearGradient>
<linearGradient id="paint11_linear_301_3253" x1="194.145" y1="22.9081" x2="224.92" y2="35.376" gradientUnits="userSpaceOnUse">
<stop offset="0.0108" stop-color="#68B548"/>
<stop offset="0.215" stop-color="#65B248"/>
<stop offset="0.3764" stop-color="#5CAA48"/>
<stop offset="0.5231" stop-color="#4D9C47"/>
<stop offset="0.6603" stop-color="#388A45"/>
<stop offset="0.7151" stop-color="#2D8144"/>
</linearGradient>
<linearGradient id="paint12_linear_301_3253" x1="196.55" y1="21.6111" x2="205.834" y2="15.0933" gradientUnits="userSpaceOnUse">
<stop stop-color="#020203"/>
<stop offset="1" stop-color="#020203" stop-opacity="0"/>
</linearGradient>
<linearGradient id="paint13_linear_301_3253" x1="224.803" y1="37.2757" x2="211.549" y2="31.0784" gradientUnits="userSpaceOnUse">
<stop offset="0.5866" stop-color="#01977F"/>
<stop offset="1" stop-color="#1C705C"/>
</linearGradient>
<linearGradient id="paint14_linear_301_3253" x1="173.036" y1="22.2268" x2="204.008" y2="36.0546" gradientUnits="userSpaceOnUse">
<stop stop-color="#79BC62"/>
<stop offset="0.2125" stop-color="#76BB64"/>
<stop offset="0.3505" stop-color="#69B769"/>
<stop offset="0.4674" stop-color="#51B271"/>
<stop offset="0.5718" stop-color="#1BAA7A"/>
<stop offset="0.5866" stop-color="#00A87C"/>
</linearGradient>
<linearGradient id="paint15_linear_301_3253" x1="203.654" y1="37.2802" x2="190.4" y2="31.083" gradientUnits="userSpaceOnUse">
<stop offset="0.0108" stop-color="#50B589"/>
<stop offset="0.2019" stop-color="#4BAE7D"/>
<stop offset="0.5478" stop-color="#409C60"/>
<stop offset="1" stop-color="#2E813C"/>
</linearGradient>
<linearGradient id="paint16_linear_301_3253" x1="175.457" y1="21.6111" x2="184.74" y2="15.0933" gradientUnits="userSpaceOnUse">
<stop stop-color="#020203"/>
<stop offset="1" stop-color="#020203" stop-opacity="0"/>
</linearGradient>
<linearGradient id="paint17_linear_301_3253" x1="157.447" y1="22.8596" x2="182.106" y2="34.9195" gradientUnits="userSpaceOnUse">
<stop stop-color="#79BC62"/>
<stop offset="0.0806" stop-color="#6EB86A"/>
<stop offset="0.4257" stop-color="#36AC82"/>
<stop offset="0.6201" stop-color="#00A88A"/>
</linearGradient>
<linearGradient id="paint18_linear_301_3253" x1="166.755" y1="27.0708" x2="182.498" y2="35.8211" gradientUnits="userSpaceOnUse">
<stop offset="0.3352" stop-color="#01977F"/>
<stop offset="1" stop-color="#1C705C"/>
</linearGradient>
<clipPath id="clip0_301_3253">
<rect width="220" height="48" fill="white"/>
</clipPath>
</defs>
</svg>
