<svg xmlns="http://www.w3.org/2000/svg" xmlns:xlink="http://www.w3.org/1999/xlink" version="1.1" width="80" height="80" viewBox="0 0 80 80" xml:space="preserve">
<desc>Created with Fabric.js 3.5.0</desc>
<defs>
</defs>
<rect x="0" y="0" width="100%" height="100%" fill="#ffffff"/>
<g transform="matrix(0.593 0 0 0.593 40.201 40.12)" id="691680">
<g style="" vector-effect="non-scaling-stroke">
		<g transform="matrix(1 0 0 1 7.7558 -10.7031)" id="surface1">
<path style="stroke: none; stroke-width: 1; stroke-dasharray: none; stroke-linecap: butt; stroke-dashoffset: 0; stroke-linejoin: miter; stroke-miterlimit: 4; is-custom-font: none; font-file-url: none; fill: rgb(0,0,0); fillRule: nonzero; opacity: 1;" transform=" translate(-74.7559, -29.2969)" d="M 31.445312 21.054688 L 56.476562 21.054688 L 56.476562 23.042969 L 33.742188 23.042969 L 33.742188 38.003906 L 55.121094 38.003906 L 55.121094 39.992188 L 33.742188 39.992188 L 33.742188 56.421875 L 56.738281 56.421875 L 56.738281 58.410156 L 31.445312 58.410156 Z M 58.71875 21.054688 L 61.378906 21.054688 L 73.164062 37.480469 L 85.210938 21.054688 L 101.597656 0.183594 L 74.675781 39.207031 L 88.550781 58.410156 L 85.785156 58.410156 L 73.164062 40.933594 L 60.492188 58.410156 L 57.78125 58.410156 L 71.757812 39.207031 Z M 89.539062 23.042969 L 89.539062 21.054688 L 118.066406 21.054688 L 118.066406 23.042969 L 104.925781 23.042969 L 104.925781 58.410156 L 102.628906 58.410156 L 102.628906 23.042969 Z M 89.539062 23.042969" stroke-linecap="round"/>
</g>
		<g transform="matrix(1 0 0 1 -45.6602 10.625)" id="surface1">
<path style="stroke: none; stroke-width: 1; stroke-dasharray: none; stroke-linecap: butt; stroke-dashoffset: 0; stroke-linejoin: miter; stroke-miterlimit: 4; is-custom-font: none; font-file-url: none; fill: rgb(0,0,0); fillRule: nonzero; opacity: 1;" transform=" translate(-21.3398, -50.625)" d="M 0.128906 21.054688 L 3 21.054688 L 42.550781 80.195312 L 26.203125 58.410156 L 2.527344 23.878906 L 2.425781 58.410156 L 0.128906 58.410156 Z M 0.128906 21.054688" stroke-linecap="round"/>
</g>
		<g transform="matrix(1 0 0 1 57.9316 11.6973)" id="surface1">
<path style="stroke: none; stroke-width: 1; stroke-dasharray: none; stroke-linecap: butt; stroke-dashoffset: 0; stroke-linejoin: miter; stroke-miterlimit: 4; is-custom-font: none; font-file-url: none; fill: rgb(0,0,0); fillRule: nonzero; opacity: 1;" transform=" translate(-124.9316, -51.6973)" d="M 117.835938 55.820312 C 118.308594 55.820312 118.65625 55.457031 118.65625 54.988281 C 118.65625 54.519531 118.308594 54.15625 117.835938 54.15625 C 117.367188 54.15625 117.015625 54.519531 117.015625 54.988281 C 117.015625 55.457031 117.367188 55.820312 117.835938 55.820312 Z M 120.089844 53.632812 C 120.089844 55.015625 121.089844 55.921875 122.542969 55.921875 C 124.097656 55.921875 125.035156 54.988281 125.035156 53.371094 L 125.035156 47.667969 L 123.785156 47.667969 L 123.785156 53.363281 C 123.785156 54.261719 123.332031 54.742188 122.535156 54.742188 C 121.820312 54.742188 121.332031 54.296875 121.316406 53.632812 Z M 126.667969 53.558594 C 126.757812 55 127.957031 55.921875 129.746094 55.921875 C 131.652344 55.921875 132.847656 54.957031 132.847656 53.414062 C 132.847656 52.203125 132.167969 51.53125 130.515625 51.148438 L 129.628906 50.929688 C 128.578125 50.683594 128.152344 50.355469 128.152344 49.777344 C 128.152344 49.054688 128.8125 48.578125 129.800781 48.578125 C 130.738281 48.578125 131.386719 49.042969 131.503906 49.785156 L 132.71875 49.785156 C 132.644531 48.425781 131.453125 47.472656 129.816406 47.472656 C 128.058594 47.472656 126.886719 48.425781 126.886719 49.863281 C 126.886719 51.046875 127.550781 51.75 129.007812 52.089844 L 130.046875 52.34375 C 131.113281 52.59375 131.582031 52.960938 131.582031 53.578125 C 131.582031 54.292969 130.84375 54.808594 129.839844 54.808594 C 128.761719 54.808594 128.015625 54.324219 127.90625 53.558594 Z M 126.667969 53.558594" stroke-linecap="round"/>
</g>
</g>
</g>
</svg>